<?xml version="1.0" encoding="iso-8859-1"?>
<!-- Generator: Adobe Illustrator 19.0.0, SVG Export Plug-In . SVG Version: 6.00 Build 0)  -->
<svg version="1.1" id="Layer_1" xmlns="http://www.w3.org/2000/svg" xmlns:xlink="http://www.w3.org/1999/xlink" x="0px" y="0px"
	 viewBox="0 0 510.116 510.116" style="enable-background:new 0 0 510.116 510.116;" xml:space="preserve">
<g>
	<g>
		<path d="M465.475,390.206L436.58,200.1c-1.328-8.736-9.472-14.768-18.223-13.408c-8.736,1.328-14.736,9.488-13.408,18.223
			l28.687,188.794c-0.592,17.007-14.72,32.783-29.647,32.783H107.182c-14.928,0-29.055-15.776-29.647-32.783l28.991-188.762
			c1.344-8.736-4.64-16.911-13.376-18.239c-8.688-1.36-16.911,4.64-18.239,13.376L45.712,390.19c-0.128,0.8-0.192,1.616-0.192,2.432
			c0,35.087,28.815,65.87,61.662,65.87h296.807c32.831,0,61.646-30.783,61.662-65.886
			C465.651,391.806,465.587,391.006,465.475,390.206z"/>
	</g>
</g>
<g>
	<g>
		<path d="M509.762,199.124c-20.975-97.677-21.199-98.525-21.327-99.005c-1.872-6.976-6.272-23.343-22.511-27.071
			C405.509,59.24,330.247,51.624,253.978,51.624c-74.99,0-145.499,7.056-203.898,20.415c-11.68,2.704-25.999,14.192-29.759,28.735
			c-0.144,0.544-0.352,1.376-19.999,98.541c-0.96,4.704,0.256,9.6,3.296,13.312c3.04,3.712,7.584,5.872,12.384,5.872h143.052
			c8.832,0,16-7.168,16-15.999v-61.422c53.262-5.504,106.765-5.472,159.995,0.08v61.342c0,8.832,7.168,15.999,16,15.999h143.068
			c4.848,0,9.408-2.224,12.448-5.968S510.77,203.843,509.762,199.124z M367.046,186.5v-59.63c0-8.064-6.016-14.88-14.048-15.872
			c-64.974-7.984-130.908-8.032-195.882-0.096c-8.032,0.992-14.064,7.808-14.064,15.888v59.71H35.552
			c5.584-27.615,15.28-75.502,15.743-77.726c0.448-1.648,4.048-4.944,5.952-5.536c55.262-12.64,125.132-19.599,196.73-19.599
			c72.798,0,144.411,7.104,202.074,19.999c0.352,0.912,0.8,2.288,1.36,4.336c0.592,2.624,10.944,50.75,16.911,78.526H367.046z"/>
	</g>
</g>
<g>
	<g>
		<path d="M255.898,175.94c-62.782,0-113.868,51.086-113.868,113.868c0,62.798,51.086,113.884,113.868,113.884
			c62.798,0,113.884-51.086,113.884-113.884C369.782,227.027,318.696,175.94,255.898,175.94z M255.898,371.694
			c-45.151,0-81.869-36.735-81.869-81.885c0-45.151,36.719-81.869,81.869-81.869s81.885,36.719,81.885,81.869
			C337.783,334.959,301.048,371.694,255.898,371.694z"/>
	</g>
</g>
<g>
	<g>
		<path d="M265.769,215.459c-5.92-5.92-16.639-5.92-22.719,0c-2.88,3.04-4.64,7.04-4.64,11.36c0,4.16,1.76,8.32,4.64,11.36
			c3.04,2.88,7.2,4.64,11.36,4.64c4.16,0,8.32-1.76,11.36-4.64c2.88-3.04,4.64-7.2,4.64-11.36S268.649,218.499,265.769,215.459z"/>
	</g>
</g>
<g>
	<g>
		<path d="M265.769,343.455c-6.08-5.92-16.639-5.92-22.719,0c-3.04,3.04-4.64,7.2-4.64,11.36c0,4.16,1.6,8.32,4.64,11.36
			c3.04,2.88,7.2,4.64,11.36,4.64c4.16,0,8.32-1.76,11.36-4.64c2.88-3.04,4.64-7.2,4.64-11.36S268.649,346.495,265.769,343.455z"/>
	</g>
</g>
<g>
	<g>
		<path d="M201.771,279.457c-6.08-5.92-16.639-5.92-22.719,0c-3.04,3.04-4.64,7.2-4.64,11.36s1.76,8.32,4.64,11.36
			c3.04,2.88,7.2,4.64,11.36,4.64c4.16,0,8.32-1.76,11.36-4.64c2.88-3.04,4.64-7.2,4.64-11.36
			C206.411,286.657,204.651,282.497,201.771,279.457z"/>
	</g>
</g>
<g>
	<g>
		<path d="M329.767,279.457c-6.08-5.92-16.799-5.92-22.719,0c-2.88,3.04-4.64,7.2-4.64,11.36s1.76,8.32,4.64,11.36
			c3.04,2.88,7.2,4.64,11.36,4.64c4.16,0,8.32-1.76,11.36-4.64c2.88-3.04,4.64-7.2,4.64-11.36
			C334.407,286.657,332.647,282.497,329.767,279.457z"/>
	</g>
</g>
<g>
	<g>
		<path d="M221.883,322.864c-6.288-6.208-16.399-6.128-22.623,0.16l-1.136,1.152c-6.192,6.288-6.128,16.415,0.16,22.623
			c3.12,3.072,7.168,4.608,11.232,4.608c4.144,0,8.256-1.6,11.392-4.768l1.136-1.152
			C228.234,339.199,228.17,329.072,221.883,322.864z"/>
	</g>
</g>
<g>
	<g>
		<path d="M311.896,233.027c-6.256-6.256-16.367-6.256-22.623,0l-1.136,1.136c-6.256,6.256-6.256,16.367,0,22.623
			c3.12,3.12,7.216,4.688,11.312,4.688s8.192-1.568,11.312-4.688l1.136-1.136C318.152,249.394,318.152,239.282,311.896,233.027z"/>
	</g>
</g>
<g>
	<g>
		<path d="M311.992,324.176l-1.136-1.152c-6.208-6.304-16.32-6.384-22.623-0.16c-6.288,6.208-6.368,16.336-0.16,22.623l1.136,1.152
			c3.136,3.184,7.264,4.768,11.392,4.768c4.048,0,8.112-1.536,11.232-4.608C318.12,340.591,318.2,330.463,311.992,324.176z"/>
	</g>
</g>
<g>
	<g>
		<path d="M221.979,234.163l-1.136-1.136c-6.256-6.256-16.367-6.256-22.623,0s-6.256,16.367,0,22.623l1.136,1.136
			c3.12,3.12,7.216,4.688,11.312,4.688c4.08,0,8.176-1.568,11.312-4.688C228.234,250.53,228.234,240.418,221.979,234.163z"/>
	</g>
</g>
<g>
	<g>
		<circle cx="254.17" cy="289.857" r="32.159"/>
	</g>
</g>
<g>
</g>
<g>
</g>
<g>
</g>
<g>
</g>
<g>
</g>
<g>
</g>
<g>
</g>
<g>
</g>
<g>
</g>
<g>
</g>
<g>
</g>
<g>
</g>
<g>
</g>
<g>
</g>
<g>
</g>
</svg>
